# Blender 4.0.2
# www.blender.org
mtllib plane.mtl
o Cube.001
v 1.100613 0.670889 -0.171445
v 0.983480 0.759500 0.063498
v 1.035071 0.674089 0.055839
v 0.585479 0.618623 1.052211
v 0.484968 0.819762 1.143673
v 0.543649 0.806998 1.363988
v 0.507298 0.661676 1.295923
v 0.914991 0.569607 0.064360
v 0.726903 0.768522 0.591945
v 0.674955 0.782975 0.464865
v 0.563944 0.880018 0.437694
v 0.497898 0.860067 0.519264
v 0.971818 0.797810 2.146732
v 0.500067 0.774135 1.790523
v 0.276250 0.739917 2.080584
v 0.744637 0.776490 2.405420
v 0.148383 0.816821 0.941933
v 0.202721 0.447870 0.930572
v 0.151828 0.615727 1.506417
v -0.107458 0.443848 1.300701
v -0.142769 0.778245 1.294393
v 0.269543 0.777859 1.610972
v 0.550202 0.485877 0.511080
v 0.820210 0.575338 0.478458
v 0.890960 0.790553 0.061025
v 0.780842 0.856573 0.292425
v 0.825748 0.673526 0.349225
v 0.712888 0.527535 0.311232
v 0.715609 0.897957 0.254402
v 0.741482 0.637637 0.457312
v 0.573821 0.506654 0.479938
v 0.746066 0.760570 2.406891
v 0.192243 0.741708 2.137723
v 0.192243 0.710031 2.143308
v -0.085506 0.604339 1.802563
v -0.356276 0.426884 1.599599
v 0.974419 0.778940 2.147805
v -0.468528 0.458925 1.728702
v -0.205940 0.668613 1.948619
v -0.096380 0.673736 2.321067
v -0.430910 0.535428 1.976062
v -0.618824 0.468997 1.906309
v -0.485500 0.542228 1.980659
v -0.644592 0.555634 2.102150
v -0.738305 0.515685 2.041903
v -0.142540 0.751452 2.005669
v -0.248737 0.773918 1.915002
v -0.342678 0.758107 2.007403
v -0.352730 0.785032 1.995526
v -0.302475 0.782960 1.858800
v -0.494323 0.724976 1.720945
v -0.644472 0.699779 1.903478
v -0.479990 0.714015 2.008334
v -0.101491 0.702077 2.323791
v -0.653312 0.639281 2.094690
v -0.750143 0.647961 2.036870
v -0.599710 0.638547 2.267022
v -0.195394 0.676718 2.455676
v -0.189874 0.664097 2.462731
v 0.508622 0.702302 1.794868
v 0.709466 0.760062 1.639880
v 0.282825 0.682141 2.071434
v 0.689444 0.793336 1.604571
v 0.019680 0.748366 1.901149
v -0.593526 0.608645 2.265731
v -0.499732 0.619625 1.980062
v -0.391709 0.756884 1.594075
v -0.204196 0.775461 1.760293
v -0.149088 0.796104 1.747178
v -0.153715 0.791769 1.806155
v -0.305560 1.119367 2.041280
v -0.379517 1.115613 2.131907
v -0.221342 1.061638 1.929561
v 0.888942 0.656346 -0.066815
v 0.877824 0.746670 -0.025183
v -0.002675 0.547207 0.558547
v -0.233952 0.571672 0.673759
v -0.326875 0.701295 0.633316
v -0.103976 0.748251 0.649343
v 0.402468 0.729128 0.319631
v 0.532990 0.765736 0.345706
v -1.159776 0.538983 0.357587
v -1.372253 0.519448 0.628619
v -0.973424 0.588177 1.031676
v -0.731588 0.624580 0.756737
v -0.374942 0.551766 1.064275
v -0.519155 0.682091 0.948982
v 0.525327 0.539532 0.230950
v 0.636739 0.650576 0.190580
v 0.673676 0.843559 0.202476
v 0.550030 0.614390 0.296619
v -1.371675 0.503426 0.629375
v -1.016730 0.563232 1.128563
v -1.015751 0.595030 1.123800
v -0.623735 0.538985 1.350801
v -1.158584 0.519943 0.357480
v -0.727003 0.499475 1.727536
v -1.138037 0.547254 1.446759
v -0.755757 0.601852 1.487131
v -0.818076 0.534568 1.956536
v -0.723538 0.513325 1.780864
v -0.833516 0.667550 1.425699
v -1.143864 0.575508 1.448878
v -0.775725 0.678106 1.760110
v -0.668445 0.738523 1.551623
v -0.794032 0.731448 1.625122
v -0.803468 0.702157 1.620642
v -0.730819 0.715382 1.510369
v -0.821184 0.618898 1.953788
v -1.253723 0.548211 1.567373
v -0.998101 0.590174 1.932635
v -1.259731 0.534190 1.564753
v -0.727081 0.552257 0.757686
v -0.616707 0.599032 0.526762
v -0.957404 0.531548 1.030454
v -0.583663 0.638750 0.535995
v -0.757516 0.653995 1.248812
v -0.993625 0.560063 1.929909
v -0.731564 0.591476 1.785477
v -0.642580 0.732409 1.395829
v -0.586361 0.743008 1.380155
v -0.587251 0.728948 1.438776
v -0.969519 1.043973 1.636694
v -0.893637 1.047959 1.547681
v -0.790150 0.992571 1.452134
vn 0.8411 0.4869 0.2357
vn 0.9852 0.1685 0.0304
vn 0.6514 -0.7324 0.1981
vn 0.4378 0.8819 0.1750
vn -0.0749 0.9967 0.0296
vn -0.0726 0.9969 0.0298
vn -0.0858 0.9959 0.0303
vn 0.1229 0.9902 0.0665
vn 0.3216 -0.9030 0.2850
vn -0.0489 0.9965 0.0674
vn 0.3385 -0.9187 0.2033
vn 0.8979 0.2548 0.3589
vn 0.3169 0.9288 -0.1923
vn 0.7612 0.3710 0.5319
vn 0.6343 -0.6408 0.4325
vn 0.4280 0.9022 -0.0537
vn 0.7143 0.3346 0.6147
vn 0.6396 -0.6688 0.3789
vn -0.4373 0.1190 0.8914
vn 0.3784 -0.8863 0.2669
vn 0.7389 0.1339 0.6604
vn 0.4550 -0.8890 0.0505
vn 0.2264 -0.8437 0.4868
vn -0.0278 0.9970 -0.0721
vn 0.1715 -0.8731 0.4563
vn -0.1789 0.9727 0.1480
vn 0.9076 -0.3571 -0.2208
vn -0.5266 -0.0010 0.8501
vn -0.1439 0.9744 0.1728
vn 0.7801 0.2625 0.5680
vn 0.7602 0.5051 -0.4087
vn 0.1251 -0.4677 -0.8750
vn 0.4150 0.7623 0.4966
vn 0.2193 -0.9725 -0.0783
vn -0.0556 -0.9525 0.2995
vn 0.1339 -0.9901 0.0423
vn -0.0722 0.9970 0.0294
vn 0.0259 0.9996 0.0093
vn 0.8846 0.0611 -0.4624
vn -0.0348 0.9961 0.0810
vn -0.0345 0.9961 0.0808
vn -0.0354 0.9967 0.0734
vn -0.3932 -0.1869 0.9002
vn -0.4311 0.0037 0.9023
vn -0.8774 -0.1597 -0.4524
vn -0.1310 -0.1536 0.9794
vn 0.6063 0.1257 0.7853
vn -0.0118 0.8253 0.5645
vn 0.1045 -0.9731 0.2055
vn 0.1632 -0.9835 0.0778
vn -0.0356 0.9967 0.0731
vn 0.8582 0.0156 -0.5131
vn -0.0034 0.9998 0.0214
vn 0.1028 0.9761 0.1915
vn 0.2322 -0.9695 0.0783
vn -0.0593 -0.9387 0.3395
vn 0.7372 -0.1378 0.6615
vn -0.1659 0.9853 -0.0411
vn -0.8628 0.1861 -0.4700
vn -0.3645 0.4578 -0.8109
vn -0.9258 -0.2058 0.3170
vn -0.6467 0.3591 -0.6729
vn 0.9750 0.2025 0.0914
vn 0.7624 -0.1049 0.6385
vn -0.4362 0.3318 -0.8364
vn -0.2144 0.0228 -0.9765
vn -0.1964 -0.8354 -0.5134
vn -0.3669 0.7842 -0.5004
vn -0.1575 0.9867 -0.0396
vn -0.1562 0.9873 -0.0289
vn -0.1583 0.9865 -0.0419
vn -0.2248 0.9480 -0.2254
vn -0.2033 -0.9667 -0.1555
vn -0.1986 0.9784 -0.0583
vn -0.1240 -0.9749 -0.1849
vn -0.5330 0.0811 -0.8422
vn 0.0048 0.8909 -0.4542
vn -0.6960 0.1940 -0.6913
vn -0.4353 -0.7707 -0.4653
vn -0.1449 0.8326 -0.5346
vn -0.7641 0.1551 -0.6262
vn -0.3799 -0.7926 -0.4769
vn -0.8158 0.0731 0.5737
vn -0.1972 -0.9562 -0.2162
vn -0.7844 -0.0511 -0.6182
vn 0.0020 -0.9441 -0.3298
vn -0.3931 -0.9189 -0.0332
vn -0.0658 0.9924 -0.1041
vn -0.3502 -0.9365 0.0184
vn -0.2527 0.9637 0.0861
vn 0.1178 -0.4530 -0.8837
vn -0.7439 -0.0274 0.6677
vn -0.2829 0.9575 0.0562
vn -0.7190 0.0805 -0.6903
vn 0.2036 0.4375 -0.8759
vn 0.9000 -0.3736 -0.2246
vn -0.6604 0.6317 -0.4060
vn 0.1780 -0.9775 -0.1129
vn -0.1488 -0.9638 0.2213
vn 0.0767 -0.9970 -0.0057
vn -0.1577 0.9866 -0.0424
vn -0.1545 0.9777 -0.1421
vn 0.2984 -0.0100 -0.9544
vn -0.2141 0.9743 -0.0695
vn -0.2066 0.9759 -0.0699
vn -0.2139 0.9744 -0.0691
vn -0.7884 -0.2348 0.5686
vn -0.8111 -0.0425 0.5833
vn 0.6076 0.0206 0.7940
vn -0.9132 -0.2486 0.3228
vn -0.8835 -0.0552 -0.4652
vn -0.6659 0.7459 0.0155
vn -0.0803 -0.9955 0.0504
vn 0.0363 -0.9989 -0.0287
vn -0.2064 0.9759 -0.0702
vn 0.3587 -0.0450 -0.9324
vn -0.1616 0.9806 -0.1113
vn -0.3416 0.9221 -0.1816
vn 0.0226 -0.9950 -0.0976
vn -0.1892 -0.9545 0.2305
vn -0.7468 -0.3180 -0.5841
vn -0.0719 0.9967 0.0377
vn 0.5736 0.3605 0.7356
vn 0.7866 0.5976 0.1553
vn -0.1293 -0.1091 0.9856
vn 0.7119 0.5241 0.4675
vn -0.2771 0.0505 -0.9595
vn -0.7332 -0.2865 -0.6168
vt 0.625000 0.375000
vt 0.625000 0.455059
vt 0.460368 0.457316
vt 0.375000 0.625000
vt 0.625000 0.625000
vt 0.625000 0.644107
vt 0.375000 0.645466
vt 0.250000 0.500000
vt 0.332316 0.500000
vt 0.250000 0.585087
vt 0.625000 0.500000
vt 0.639405 0.500000
vt 0.750000 0.618134
vt 0.750000 0.637631
vt 0.625000 0.750000
vt 0.685082 0.750000
vt 0.678329 0.750000
vt 0.750000 0.693815
vt 0.250000 0.693838
vt 0.286144 0.750000
vt 0.250000 0.750000
vt 0.750000 0.750000
vt 0.705201 0.750000
vt 0.250000 0.637676
vt 0.375000 0.500000
vt 0.750000 0.587988
vt 0.669941 0.500000
vt 0.750000 0.500000
vt 0.625000 0.473100
vt 0.417186 0.478907
vt 0.353907 0.500000
vt 0.250000 0.611771
vt 0.750000 0.607322
vt 0.651900 0.500000
vt 0.625000 0.485595
vt 0.395681 0.489660
vt 0.364660 0.500000
vt 0.250000 0.623669
vt 0.375000 0.750000
vt 0.288211 0.750000
vt 0.279177 0.750000
vt 0.648054 0.750000
vt 0.683830 0.750000
vt 0.706345 0.750000
vt 0.671221 0.750000
vt 0.720479 0.750000
vt 0.625000 0.875000
vt 0.375000 0.875000
vt 0.316899 0.750000
vt 0.375000 0.677811
vt 0.318115 0.750000
vt 0.625000 0.670758
vt 0.704494 0.750000
vt 0.721932 0.750000
vt 0.715016 0.750000
vt 0.715584 0.750000
s 1
usemtl None
f 1/1/1 2/2/1 3/3/1
f 4/4/2 5/5/2 6/6/2 7/7/2
f 1/8/3 3/9/3 8/10/3
f 9/11/4 10/12/4 11/13/4 12/14/4
f 13/15/5 14/16/6 15/17/7 16/15/7
f 12/14/8 17/18/8 5/5/8 9/11/8
f 18/19/9 4/4/9 7/7/9 19/20/9 20/21/9
f 17/18/10 21/22/10 22/23/10 6/6/10 5/5/10
f 23/24/11 24/25/11 4/4/11 18/19/11
f 24/25/12 9/11/12 5/5/12 4/4/12
f 25/26/13 2/27/13 1/28/13
f 3/3/14 2/2/14 26/29/14 27/30/14
f 8/10/15 3/9/15 27/31/15 28/32/15
f 29/33/16 26/34/16 2/27/16 25/26/16
f 27/30/17 26/29/17 10/35/17 30/36/17
f 28/32/18 27/31/18 30/37/18 31/38/18
f 32/39/19 16/15/19 33/15/19 34/39/19
f 20/21/20 19/20/20 35/40/20 36/21/20
f 37/39/21 13/15/21 16/15/21 32/39/21
f 38/21/22 39/39/22 40/39/22 41/41/22 42/21/22
f 36/21/23 35/40/23 39/39/23 38/21/23
f 16/15/24 15/17/24 33/15/24
f 42/21/25 41/39/25 43/39/25 44/39/25 45/21/25
f 46/15/26 47/42/26 48/43/26 49/44/26 50/45/26 51/22/26 52/22/26 53/46/26 54/15/26
f 39/39/27 46/15/27 54/15/27 40/39/27
f 44/39/28 55/15/28 56/47/28 45/48/28
f 54/15/29 53/15/29 57/15/29 58/15/29
f 40/39/30 54/15/30 58/15/30 59/39/30
f 30/36/31 10/35/31 9/11/31 24/25/31
f 31/38/32 30/37/32 24/25/32 23/24/32
f 11/13/33 10/12/33 26/34/33 29/33/33
f 60/49/34 61/50/34 37/39/34
f 34/39/35 62/51/35 32/39/35
f 62/51/36 60/49/36 37/39/36 32/39/36
f 63/52/37 14/16/6 13/15/5
f 33/15/38 15/17/38 64/53/38 46/15/38
f 61/50/39 63/52/39 13/15/39 37/39/39
f 15/17/40 14/16/41 22/23/42 64/53/40
f 34/39/43 33/15/43 46/15/43 39/39/43
f 59/39/44 58/15/44 57/15/44 65/39/44
f 65/39/45 57/15/45 53/15/45 41/39/45
f 41/39/46 53/15/46 66/15/46 43/39/46
f 43/39/47 66/15/47 55/15/47 44/39/47
f 53/46/48 52/22/48 56/22/48 55/15/48 66/15/48
f 41/41/49 40/39/49 59/39/49 65/39/49
f 35/40/50 19/20/50 60/49/50 62/51/50
f 6/6/51 22/23/42 14/16/41 63/52/51
f 7/7/52 6/6/52 63/52/52 61/50/52
f 64/53/53 22/23/53 21/22/53 67/22/53 68/54/53 69/55/53 70/56/53
f 46/15/54 64/53/54 70/56/54 47/42/54
f 19/20/55 7/7/55 61/50/55 60/49/55
f 39/39/56 35/40/56 62/51/56 34/39/56
f 48/43/57 47/42/57 71/42/57 72/43/57
f 50/45/58 68/54/58 67/22/58 51/22/58
f 50/45/59 49/44/59 72/44/59 71/45/59
f 69/55/60 68/54/60 73/55/60
f 49/44/61 48/43/61 72/44/61
f 68/54/62 50/45/62 71/45/62 73/54/62
f 70/56/63 69/55/63 73/56/63
f 70/56/64 73/56/64 71/42/64 47/42/64
f 1/1/65 74/3/65 75/2/65
f 76/4/66 77/7/66 78/6/66 79/5/66
f 1/8/67 8/10/67 74/9/67
f 80/11/68 12/14/68 11/13/68 81/12/68
f 82/15/69 83/15/70 84/17/70 85/16/71
f 12/14/72 80/11/72 79/5/72 17/18/72
f 18/19/73 20/21/73 86/20/73 77/7/73 76/4/73
f 17/18/74 79/5/74 78/6/74 87/23/74 21/22/74
f 23/24/75 18/19/75 76/4/75 88/25/75
f 88/25/76 76/4/76 79/5/76 80/11/76
f 25/26/77 1/28/77 75/27/77
f 74/3/78 89/30/78 90/29/78 75/2/78
f 8/10/79 28/32/79 89/31/79 74/9/79
f 29/33/80 25/26/80 75/27/80 90/34/80
f 89/30/81 91/36/81 81/35/81 90/29/81
f 28/32/82 31/38/82 91/37/82 89/31/82
f 92/39/83 93/39/83 94/15/83 83/15/83
f 20/21/84 36/21/84 95/40/84 86/20/84
f 96/39/85 92/39/85 83/15/85 82/15/85
f 38/21/86 42/21/86 97/41/86 98/39/86 99/39/86
f 36/21/87 38/21/87 99/39/87 95/40/87
f 83/15/88 94/15/88 84/17/88
f 42/21/89 45/21/89 100/39/89 101/39/89 97/39/89
f 102/15/90 103/15/90 104/46/90 52/22/90 51/22/90 105/45/90 106/44/90 107/43/90 108/42/90
f 99/39/91 98/39/91 103/15/91 102/15/91
f 100/39/92 45/48/92 56/47/92 109/15/92
f 103/15/93 110/15/93 111/15/93 104/15/93
f 98/39/94 112/39/94 110/15/94 103/15/94
f 91/36/95 88/25/95 80/11/95 81/35/95
f 31/38/96 23/24/96 88/25/96 91/37/96
f 11/13/97 29/33/97 90/34/97 81/12/97
f 113/49/98 96/39/98 114/50/98
f 93/39/99 92/39/99 115/51/99
f 115/51/100 92/39/100 96/39/100 113/49/100
f 116/52/101 82/15/69 85/16/71
f 94/15/102 102/15/102 117/53/102 84/17/102
f 114/50/103 96/39/103 82/15/103 116/52/103
f 84/17/104 117/53/104 87/23/105 85/16/106
f 93/39/107 99/39/107 102/15/107 94/15/107
f 112/39/108 118/39/108 111/15/108 110/15/108
f 118/39/109 97/39/109 104/15/109 111/15/109
f 97/39/110 101/39/110 119/15/110 104/15/110
f 101/39/111 100/39/111 109/15/111 119/15/111
f 104/46/112 119/15/112 109/15/112 56/22/112 52/22/112
f 97/41/113 118/39/113 112/39/113 98/39/113
f 95/40/114 115/51/114 113/49/114 86/20/114
f 78/6/115 116/52/115 85/16/106 87/23/105
f 77/7/116 114/50/116 116/52/116 78/6/116
f 117/53/117 120/56/117 121/55/117 122/54/117 67/22/117 21/22/117 87/23/117
f 102/15/118 108/42/118 120/56/118 117/53/118
f 86/20/119 113/49/119 114/50/119 77/7/119
f 99/39/120 93/39/120 115/51/120 95/40/120
f 107/43/121 123/43/121 124/42/121 108/42/121
f 105/45/122 51/22/122 67/22/122 122/54/122
f 105/45/123 124/45/123 123/44/123 106/44/123
f 121/55/124 125/55/124 122/54/124
f 106/44/125 123/44/125 107/43/125
f 122/54/126 125/54/126 124/45/126 105/45/126
f 120/56/127 125/56/127 121/55/127
f 120/56/128 108/42/128 124/42/128 125/56/128
